<svg width="256" height="256" viewBox="0 0 256 256" fill="none" xmlns="http://www.w3.org/2000/svg">
  <rect width="256" height="256" rx="48" fill="#1A1A1A"/>
  <g filter="url(#glow)">
    <ellipse cx="128" cy="128" rx="80" ry="40" fill="#FFD700" fill-opacity="0.15"/>
    <ellipse cx="128" cy="128" rx="70" ry="35" fill="#FF8C00" fill-opacity="0.08"/>
  </g>
  <path d="M128 72C99 72 76 101 76 128C76 155 99 184 128 184C157 184 180 155 180 128C180 101 157 72 128 72ZM128 176C106.3 176 88 153.7 88 128C88 102.3 106.3 80 128 80C149.7 80 168 102.3 168 128C168 153.7 149.7 176 128 176Z" fill="#FFD700" stroke="#FFD700" stroke-width="3"/>
  <text x="50%" y="53%" text-anchor="middle" fill="#FFD700" font-size="38" font-family="Verdana" font-weight="bold" dy=".3em" letter-spacing="2">8</text>
  <text x="50%" y="83%" text-anchor="middle" fill="#FFD700" font-size="32" font-family="Verdana" dy=".3em" letter-spacing="2">BenzFlix</text>
  <defs>
    <filter id="glow" x="0" y="0" width="256" height="256">
      <feGaussianBlur stdDeviation="8" result="coloredBlur"/>
      <feMerge>
        <feMergeNode in="coloredBlur"/>
        <feMergeNode in="SourceGraphic"/>
      </feMerge>
    </filter>
  </defs>
</svg>